<?xml version="1.0" encoding="utf-8"?>
<!-- Generator: Adobe Illustrator 22.0.1, SVG Export Plug-In . SVG Version: 6.00 Build 0)  -->
<svg version="1.1" id="Layer_1" xmlns="http://www.w3.org/2000/svg" xmlns:xlink="http://www.w3.org/1999/xlink" x="0px" y="0px"
	 viewBox="0 0 339 155" style="enable-background:new 0 0 339 155;" xml:space="preserve">
<g id="surface1">
	<path d="M105.8,16c-2.8,0-5.1,2.3-5.1,5.1s2.3,5.1,5.1,5.1s5.1-2.3,5.1-5.1h11.9c5.3,0,7.4,1.7,9.1,7.5l20.5,82.7
		c1.1,4.1,2.3,8.7,7,10.9c-1.5,1.8-2.4,4-2.4,6.5c0,5.7,4.6,10.2,10.2,10.2s10.2-4.6,10.2-10.2c0-1.9-0.6-3.6-1.4-5.1h15.7
		c-0.9,1.5-1.4,3.3-1.4,5.1c0,5.7,4.6,10.2,10.2,10.2s10.2-4.6,10.2-10.2c0-2.7-1.1-5.1-2.7-6.9c0.1-0.3,0.2-0.5,0.2-0.8
		c0-1.4-1.2-2.6-2.6-2.6h-39.2c-6.9,0-7.7-2.8-9.1-8.3l-1.8-7h47c1.1,0,2-0.7,2.4-1.7l18.4-48.7c0.3-0.8,0.2-1.6-0.3-2.3
		s-1.3-1.1-2.1-1.1h-78.7l-5.4-22c-1.7-5.9-4.7-11.3-14.1-11.3C122.7,16,105.8,16,105.8,16z M170.9,26.7c-0.7,0-1.3,0.3-1.8,0.8
		l-16.7,16.7h37.1l-16.7-16.7C172.1,27,171.5,26.7,170.9,26.7z M191.4,26.8c-0.7,0-1.4,0.2-1.8,0.7l-4.8,4.8l11.9,11.9H210
		l-16.7-16.7C192.6,27.1,192,26.8,191.4,26.8z M167.3,123.6c2.8,0,5.1,2.3,5.1,5.1s-2.3,5.1-5.1,5.1s-5.1-2.3-5.1-5.1
		C162.2,125.9,164.5,123.6,167.3,123.6z M200.6,123.6c2.8,0,5.1,2.3,5.1,5.1s-2.3,5.1-5.1,5.1s-5.1-2.3-5.1-5.1
		C195.5,125.9,197.8,123.6,200.6,123.6z"/>
</g>
</svg>
