<?xml version="1.0" encoding="utf-8"?>
<!-- Generator: Adobe Illustrator 22.0.1, SVG Export Plug-In . SVG Version: 6.00 Build 0)  -->
<svg version="1.1" id="Layer_1" xmlns="http://www.w3.org/2000/svg" xmlns:xlink="http://www.w3.org/1999/xlink" x="0px" y="0px"
	 viewBox="0 0 339 155" style="enable-background:new 0 0 339 155;" xml:space="preserve">
<g>
	<g>
		<g>
			<path d="M175.8,37.8c9.6,0,17.4-7.8,17.3-17.4c0-9.6-7.8-17.4-17.4-17.3c-9.6,0-17.4,7.8-17.3,17.4
				C158.4,30.1,166.2,37.9,175.8,37.8z"/>
		</g>
		<g>
			<path d="M208.8,57.8c0-8.3-6.8-15.1-15.1-15l-4.6,0c-0.6,0-1.2,0.2-1.7,0.5c-0.5,0.3-0.9,0.8-1.2,1.3l-10.5,22.8l-10.6-22.8
				c-0.2-0.5-0.6-1-1.2-1.3c-0.5-0.3-1.1-0.5-1.7-0.5l-4.5,0c-8.3,0-15.1,6.8-15,15.1l0.1,37.9c0,0.8,0.3,1.6,0.9,2.2
				c0.6,0.6,1.4,0.9,2.2,0.9l5.5,0c0.8,0,1.6,0.3,2.3,0.8c0.7,0.6,1.1,1.3,1.2,2.1l7.5,46.8c0.1,0.8,0.5,1.6,1.2,2.1
				c0.7,0.6,1.5,0.8,2.3,0.8l20,0c0.8,0,1.6-0.3,2.3-0.9c0.7-0.6,1.1-1.3,1.2-2.1l7.2-46.8c0.1-0.8,0.5-1.6,1.2-2.1
				c0.7-0.6,1.5-0.8,2.3-0.8l5.5,0c0.8,0,1.6-0.3,2.2-0.9c0.6-0.6,0.9-1.4,0.9-2.2L208.8,57.8z"/>
		</g>
	</g>
	<g>
		<g>
			<path d="M127.8,44.8c7.9,0,14.4-6.5,14.3-14.4c0-7.9-6.5-14.4-14.4-14.3c-7.9,0-14.4,6.5-14.3,14.4
				C113.4,38.4,119.9,44.8,127.8,44.8z"/>
		</g>
		<g>
			<path d="M223.7,44.5c7.9,0,14.4-6.5,14.3-14.4c0-7.9-6.5-14.4-14.4-14.3c-7.9,0-14.4,6.5-14.3,14.4
				C209.3,38.1,215.8,44.5,223.7,44.5z"/>
		</g>
		<g>
			<path d="M238.6,48.6l-3.8,0c-0.5,0-1,0.1-1.4,0.4c-0.4,0.3-0.8,0.7-1,1.1L223.8,69l-4.2-9l0.1,35.7c0,3.7-1.4,7.2-4.1,9.9
				c-2,2-4.4,3.3-7.1,3.8l4.3,26.9c0.1,0.7,0.4,1.3,1,1.8c0.5,0.5,1.2,0.7,1.9,0.7l16.6,0c0.7,0,1.3-0.2,1.9-0.7
				c0.5-0.5,0.9-1.1,1-1.8l6-38.7c0.1-0.7,0.4-1.3,1-1.8c0.5-0.5,1.2-0.7,1.9-0.7l4.6,0c0.7,0,1.3-0.3,1.8-0.8
				c0.5-0.5,0.8-1.2,0.8-1.8L251.1,61C251,54.2,245.4,48.6,238.6,48.6z"/>
		</g>
		<g>
			<path d="M132.1,95.9L132,60.2l-4.2,9.1l-8.7-18.9c-0.2-0.4-0.5-0.8-1-1.1c-0.4-0.3-0.9-0.4-1.4-0.4l-3.8,0
				c-6.9,0-12.5,5.6-12.4,12.5l0.1,31.4c0,0.7,0.3,1.3,0.8,1.8c0.5,0.5,1.2,0.8,1.8,0.8l4.6,0c0.7,0,1.3,0.2,1.9,0.7
				c0.6,0.5,0.9,1.1,1,1.8l6.2,38.7c0.1,0.7,0.4,1.3,1,1.8c0.5,0.5,1.2,0.7,1.9,0.7l16.6,0c0.7,0,1.3-0.2,1.9-0.7
				c0.5-0.5,0.9-1.1,1-1.8l4.2-26.9c-2.7-0.5-5.2-1.8-7.1-3.8C133.6,103.1,132.1,99.6,132.1,95.9z"/>
		</g>
	</g>
	<g>
		<g>
			<path d="M85.6,50.9c6.5,0,11.7-5.3,11.7-11.7c0-6.5-5.3-11.7-11.7-11.7c-6.5,0-11.7,5.3-11.7,11.7C73.9,45.7,79.1,50.9,85.6,50.9
				z"/>
		</g>
		<g>
			<path d="M266,50.5c6.5,0,11.7-5.3,11.7-11.7c0-6.5-5.3-11.7-11.7-11.7c-6.5,0-11.7,5.3-11.7,11.7C254.3,45.3,259.5,50.5,266,50.5
				z"/>
		</g>
		<g>
			<g>
				<path d="M278.1,53.8l-3.1,0c-0.4,0-0.8,0.1-1.1,0.3c-0.3,0.2-0.6,0.5-0.8,0.9l-7,15.4l-4.2-9l0.1,31c0,3.6-1.4,6.9-3.9,9.5
					c-1.2,1.2-2.7,2.2-4.2,2.9l3.3,20.5c0.1,0.5,0.4,1.1,0.8,1.4c0.5,0.4,1,0.6,1.5,0.6l13.5,0c0.5,0,1.1-0.2,1.5-0.6
					c0.4-0.4,0.7-0.9,0.8-1.4l4.9-31.5c0.1-0.5,0.3-1,0.8-1.4c0.4-0.4,1-0.6,1.5-0.6l3.7,0c0.5,0,1.1-0.2,1.5-0.6
					c0.4-0.4,0.6-1,0.6-1.5L288.3,64C288.2,58.3,283.7,53.8,278.1,53.8z"/>
			</g>
			<g>
				<path d="M89.8,92.8l-0.1-31l-4.1,9l-7.1-15.4c-0.2-0.4-0.4-0.7-0.8-0.9c-0.4-0.2-0.7-0.3-1.1-0.3l-3.1,0
					c-5.6,0-10.1,4.6-10.1,10.2L63.5,90c0,0.5,0.2,1.1,0.6,1.5c0.4,0.4,1,0.6,1.5,0.6l3.7,0c0.5,0,1.1,0.2,1.5,0.6s0.7,0.9,0.8,1.4
					l5,31.5c0.1,0.5,0.4,1,0.8,1.4c0.4,0.4,1,0.6,1.5,0.6l13.5,0c0.5,0,1.1-0.2,1.5-0.6c0.4-0.4,0.7-0.9,0.8-1.4l3.2-20.5
					c-1.6-0.7-3-1.6-4.2-2.8C91.3,99.7,89.9,96.4,89.8,92.8z"/>
			</g>
		</g>
	</g>
	<g>
		<g>
			<path d="M56.5,99.2c-2.4-2.4-3.8-5.7-3.8-9.1l-0.1-21.4L51,72.2l-5.5-11.9c-0.1-0.3-0.3-0.5-0.6-0.7c-0.3-0.2-0.6-0.3-0.9-0.3
				l-2.4,0c-4.4,0-7.9,3.5-7.9,7.9l0,19.8c0,0.4,0.2,0.8,0.5,1.2c0.3,0.3,0.7,0.5,1.2,0.5l2.9,0c0.4,0,0.9,0.1,1.2,0.4
				c0.3,0.3,0.6,0.7,0.6,1.1l3.9,24.5c0.1,0.4,0.3,0.8,0.6,1.1c0.3,0.3,0.8,0.4,1.2,0.4l10.5,0c0.4,0,0.8-0.1,1.2-0.4
				c0.3-0.3,0.6-0.7,0.6-1.1l2-12.9C58.8,101.1,57.5,100.3,56.5,99.2z"/>
		</g>
		<g>
			<path d="M300.6,38.5c-5,0-9.1,4.1-9.1,9.1c0,0.1,0,0.2,0,0.4c2.6,2.2,4.6,5,5.9,8.1c1,0.4,2,0.6,3.2,0.6c5,0,9.1-4.1,9.1-9.1
				C309.7,42.5,305.6,38.5,300.6,38.5z"/>
		</g>
		<g>
			<path d="M318,67.1c0-4.4-3.5-7.9-7.9-7.9l-2.4,0c-0.3,0-0.6,0.1-0.9,0.3c-0.3,0.2-0.5,0.4-0.6,0.7l-5.5,12l-1.6-3.5l0.1,20.8
				c0,3.4-1.3,6.7-3.8,9.1c-1.1,1.1-2.4,2-3.8,2.6l2.1,13.5c0.1,0.4,0.3,0.8,0.6,1.1c0.3,0.3,0.8,0.4,1.2,0.4l10.5,0
				c0.4,0,0.8-0.1,1.2-0.4c0.3-0.3,0.6-0.7,0.6-1.1l3.8-24.5c0.1-0.4,0.3-0.8,0.6-1.1c0.3-0.3,0.8-0.4,1.2-0.4l2.9,0
				c0.4,0,0.8-0.2,1.2-0.5c0.3-0.3,0.5-0.7,0.5-1.2L318,67.1z"/>
		</g>
		<g>
			<path d="M60,48.5c0-0.3,0.1-0.7,0.1-1c0-5-4.1-9.1-9.1-9.1c-5,0-9.1,4.1-9.1,9.1c0,5,4.1,9.1,9.1,9.1c1.2,0,2.4-0.2,3.4-0.7
				C55.7,53.1,57.6,50.6,60,48.5z"/>
		</g>
	</g>
</g>
</svg>
