<?xml version="1.0" encoding="utf-8"?>
<!-- Generator: Adobe Illustrator 22.0.1, SVG Export Plug-In . SVG Version: 6.00 Build 0)  -->
<svg version="1.1" id="Layer_1" xmlns="http://www.w3.org/2000/svg" xmlns:xlink="http://www.w3.org/1999/xlink" x="0px" y="0px"
	 viewBox="0 0 339 155" style="enable-background:new 0 0 339 155;" xml:space="preserve">
<style type="text/css">
	.st0{enable-background:new    ;}
	.st1{clip-path:url(#SVGID_2_);}
</style>
<g>
	<g>
		<g class="st0">
			<defs>
				<rect id="SVGID_1_" x="134" y="20.1" class="st0" width="73.6" height="54.8"/>
			</defs>
			<clipPath id="SVGID_2_">
				<use xlink:href="#SVGID_1_"  style="overflow:visible;"/>
			</clipPath>
			<g class="st1">
				<g>
					<g>
						<g>
							<path d="M150,45.9l1-3.6h3.7c0.9-3.1,2.6-5.7,5.2-7.7c3.9-3.1,9.1-4.7,15.5-4.7c3.5,0,6.5,0.5,9.1,1.4l-1.9,6.4
								c-1.8-1.3-4.3-2-7.7-2c-3.4,0-6.1,0.9-8.2,2.7c-1.2,1-2,2.3-2.5,3.8h17.2l-1,3.6h-16.8c0,0.4,0,0.8,0,1.4
								c0,0.5,0,1.1,0.1,1.7h15.9l-1,3.6h-14.2c0.5,1.7,1.3,3,2.4,3.9c2.1,1.8,4.8,2.7,8.1,2.7c4,0,7.2-0.9,9.5-2.7v7.1
								c-2.7,1-5.9,1.5-9.5,1.5c-6.1,0-11.1-1.5-15-4.6c-2.7-2.1-4.4-4.7-5.3-7.9H150l1-3.6h3.1c0-0.4,0-0.8,0-1.2
								c0-0.7,0-1.3,0.1-1.9H150 M170.8,20.1c-10.2,0-19.4,3.1-26.1,8c-6.7,5-10.8,11.8-10.8,19.4c0,15.1,16.5,27.4,36.8,27.4
								c10.2,0,19.4-3.1,26-8c6.7-5,10.8-11.8,10.8-19.4s-4.1-14.4-10.8-19.4C190.2,23.2,181,20.1,170.8,20.1"/>
						</g>
					</g>
				</g>
			</g>
		</g>
	</g>
</g>
<g>
	<g>
		<g>
			<g>
				<path d="M291.7,81.6H48l42.6-66.1l165.3-0.3L291.7,81.6z M68.1,74.1l204.3,0l-23.7-51.3L97.1,23L68.1,74.1z"/>
			</g>
		</g>
		<g>
			<g>
				<path d="M107.2,31.6c5.8-3.1,7.4-7.8,4-10.6c-3.2-2.7-10.3-2.4-16.2,0.7c-6,3.1-8.5,7.8-5.2,10.6C93.3,35,101.2,34.7,107.2,31.6
					z"/>
			</g>
		</g>
		<g>
			<g>
				<path d="M237.7,31.5c-5.4-3.1-6.6-7.8-2.9-10.6c3.5-2.8,10.6-2.5,16.1,0.6c5.7,3.1,7.7,7.8,4.1,10.6
					C251.2,34.9,243.3,34.6,237.7,31.5z"/>
			</g>
		</g>
		<g>
			<g>
				<path d="M91.2,65.4c4,3.1,1.3,7.8-6.3,10.6c-7.8,2.7-17.5,2.5-21.4-0.6c-3.7-3.1-0.3-7.8,7.4-10.6C78.5,62,87.4,62.3,91.2,65.4z
					"/>
			</g>
		</g>
		<g>
			<g>
				<path d="M250.1,65.4c-4.3,3.1-2.1,7.8,5.2,10.6c7.5,2.7,17.2,2.5,21.4-0.6c4-3.1,1.1-7.8-6.3-10.6
					C263.2,62,254.3,62.3,250.1,65.4z"/>
			</g>
		</g>
	</g>
	<g>
		<rect x="48" y="87.8" width="243.7" height="6.8"/>
	</g>
	<g>
		<rect x="48" y="99.2" width="243.7" height="6.8"/>
	</g>
	<g>
		<rect x="48" y="110.6" width="243.7" height="6.8"/>
	</g>
	<g>
		<rect x="48" y="122" width="243.7" height="6.8"/>
	</g>
	<g>
		<rect x="48" y="133.4" width="243.7" height="6.8"/>
	</g>
</g>
</svg>
