<?xml version="1.0" encoding="utf-8"?>
<!-- Generator: Adobe Illustrator 22.0.1, SVG Export Plug-In . SVG Version: 6.00 Build 0)  -->
<svg version="1.1" id="Layer_1" xmlns="http://www.w3.org/2000/svg" xmlns:xlink="http://www.w3.org/1999/xlink" x="0px" y="0px"
	 viewBox="0 0 339 155" style="enable-background:new 0 0 339 155;" xml:space="preserve">
<g id="g25">
	<path id="path27" d="M143.1,77.6H196c0,0,6.4-1,6.6-4.1c0.2-2.7-2-6.6-2-6.6l-26-44.9c0,0-1.3-3-5.2-3c-3.7,0-4.7,2.7-4.7,2.7
		l-26.3,45c0,0-2.6,4.3-1.8,6.8C137.7,77.3,143.1,77.6,143.1,77.6"/>
	<path id="path29" d="M108.6,136h52.9c0,0,6.4-0.9,6.6-4.1c0.2-2.7-2-6.6-2-6.6l-26-44.9c0,0-1.3-3-5.2-3c-3.7,0-4.7,2.8-4.7,2.8
		l-26.3,44.9c0,0-2.6,4.3-1.8,6.8C103.2,135.8,108.6,136,108.6,136"/>
</g>
<path id="path31" d="M177.5,136h52.9c0,0,6.4-0.9,6.6-4.1c0.2-2.7-2-6.6-2-6.6l-26-44.9c0,0-1.3-3-5.2-3c-3.7,0-4.8,2.8-4.8,2.8
	l-26.2,44.9c0,0-2.6,4.3-1.8,6.8C172.1,135.8,177.5,136,177.5,136"/>
</svg>
