<?xml version="1.0" encoding="UTF-8" standalone="no"?>
<svg
   xmlns:dc="http://purl.org/dc/elements/1.1/"
   xmlns:cc="http://creativecommons.org/ns#"
   xmlns:rdf="http://www.w3.org/1999/02/22-rdf-syntax-ns#"
   xmlns:svg="http://www.w3.org/2000/svg"
   xmlns="http://www.w3.org/2000/svg"
   xmlns:xlink="http://www.w3.org/1999/xlink"
   xmlns:sodipodi="http://sodipodi.sourceforge.net/DTD/sodipodi-0.dtd"
   xmlns:inkscape="http://www.inkscape.org/namespaces/inkscape"
   version="1.1"
   id="Layer_1"
   x="0px"
   y="0px"
   width="699"
   height="136"
   viewBox="0 0 699 136"
   enable-background="new 0 0 782.362 1128.189"
   xml:space="preserve">
<path
   inkscape:connector-curvature="0"
   id="path17"
   d="m 733.096,1020.869 c 0,1.928 -1.475,3.516 -3.402,3.516 -1.983,0 -3.515,-1.531 -3.515,-3.459 0,-1.928 1.474,-3.516 3.459,-3.516 1.927,0 3.458,1.531 3.458,3.459 m -3.458,-4.308 c -2.382,0 -4.31,1.871 -4.31,4.309 0,2.381 1.871,4.365 4.31,4.365 2.381,0 4.308,-1.927 4.308,-4.309 0,-2.438 -1.871,-4.365 -4.252,-4.365"
   clip-path="url(#SVGID_2_)"
   transform="matrix(2.5989865,0,0,2.5989865,-1208.5157,-2642.0281)" /><path
   inkscape:connector-curvature="0"
   d="m 683.23459,5.3047469 h 5.89451 c 2.06359,0 3.24093,1.3254831 3.24093,2.9472507 0,1.3254831 -0.29368,2.3572804 -1.62177,2.7991084 v 0.148142 c 1.0292,0.293686 1.47363,1.473626 1.47363,2.505423 0.14814,0.735513 0.14814,2.060997 0.58997,2.653565 h -2.35728 c -0.29109,-0.441827 -0.29109,-1.621767 -0.44183,-2.505423 -0.14814,-1.17734 -0.58997,-1.619168 -1.76731,-1.619168 h -2.50542 v 4.124591 h -2.50543 m 2.35728,-5.899699 h 2.65357 c 1.17734,0 1.76731,-0.441828 1.76731,-1.6165695 0,-1.0317976 -0.44183,-1.6217676 -1.62177,-1.6217676 h -2.65096 l -0.14815,3.2383371 z"
   id="path19" /><path
   inkscape:connector-curvature="0"
   d="m 438.35029,30.205637 v 81.038993 c 0,1.17994 0.29368,2.50543 0.88365,3.68537 l 10.0191,17.23907 c 1.32548,2.35729 3.8309,3.68277 6.48187,3.68277 h 40.22451 c 1.32809,0 2.65357,-0.14814 3.83351,-0.88366 l 15.02734,-8.69361 c 0.29628,-0.14814 0.59257,-0.14814 0.88625,-0.14814 1.17734,0 1.91286,0.73551 1.91286,1.76991 v 5.15639 c 0,1.61917 1.32808,2.79651 2.79911,2.79651 h 17.09353 c 1.62177,0 2.79911,-1.0292 2.79911,-2.65097 V 33.002146 c 0,-1.473625 -1.0318,-2.799108 -2.65357,-2.799108 h -17.09353 c -1.47103,0 -2.79651,1.179939 -2.79651,2.653565 v 77.501777 c 0,1.62177 -1.17994,2.79911 -2.79911,2.79911 h -50.98172 c -1.62177,0 -2.94725,-1.0318 -2.94725,-2.65357 V 33.002146 c 0,-1.473625 -1.17734,-2.799108 -2.79911,-2.799108"
   id="path21" /><path
   inkscape:connector-curvature="0"
   d="m 407.11307,135.84924 c -1.47363,0 -2.65357,-1.0292 -2.65357,-2.65357 V 30.203038 h 22.54361 V 133.05013 c 0,1.61917 -1.17474,2.79651 -2.79651,2.79651 M 404.31136,2.154265e-4 V 20.628371 h 22.68915 V 2.8019229 c 0,-1.6191686 -1.17474,-2.79910849 -2.7965,-2.79910849 h -19.89265 z"
   id="path23" /><path
   inkscape:connector-curvature="0"
   d="m 137.7671,133.19827 c 0,1.47363 -1.03179,2.65357 -2.65356,2.65357 h -16.94539 c -1.62177,0 -2.94985,-1.0292 -2.94985,-2.65357 V 2.7993239 c 0,-1.4736254 1.17994,-2.7991084735 2.79911,-2.7991084735 h 16.94799 c 1.61917,0 2.7991,1.1799398735 2.7991,2.6535651735 V 30.057494 h 19.00639 v 22.691751 h -18.85824"
   id="path25" /><path
   inkscape:connector-curvature="0"
   d="M 392.96679,2.154265e-4 V 133.05273 c 0,1.61917 -1.17734,2.79651 -2.65097,2.79651 h -17.09353 c -1.61917,0 -2.79911,-1.0292 -2.79911,-2.65357 v -5.15638 c 0,-1.0292 -0.88366,-1.91286 -1.91546,-1.91286 -0.29108,0 -0.58997,0 -0.88365,0 l -15.02994,8.69361 c -1.32548,0.73811 -2.50282,1.0292 -3.83091,1.0292 h -66.30534 c -1.47103,0 -2.79911,-1.0292 -2.79911,-2.65097 V 53.484759 c 0,-2.653566 1.17994,-5.158989 3.68536,-6.484472 l 27.25818,-15.765452 c 1.17474,-0.732914 2.35468,-1.029198 3.68276,-1.029198 h 55.98997 V 2.7993239 c 0,-1.4736254 1.17994,-2.7991084735 2.8017,-2.7991084735 M 302.20238,110.50652 c 0,1.47363 1.32808,2.65357 2.79911,2.65357 h 62.47444 c 1.47102,0 2.79911,-1.0318 2.79911,-2.65357 V 41.108385 c 0,-1.029199 -0.73552,-1.915453 -1.76991,-1.915453 -0.29109,0 -0.58997,0 -0.88366,0.148142 l -21.65995,12.376374 c -1.17994,0.738112 -2.50543,1.031797 -3.83091,1.031797 h -36.98358 c -1.47102,0 -2.79911,1.325484 -2.79911,2.799109 l -0.14554,54.958166 z"
   id="path27" /><path
   inkscape:connector-curvature="0"
   id="path37"
   d="m 558.368,1060.157 c 0.624,0 1.078,-0.454 1.078,-1.077 v -14.286 c 0,-0.453 -0.227,-0.737 -0.624,-0.737 -0.17,0 -0.284,0 -0.396,0 l -25.455,14.684 c -0.228,0.17 -0.34,0.396 -0.34,0.681 0,0.396 0.282,0.68 0.68,0.68 m 34.865,7.709 c 0,0.567 -0.397,1.021 -1.021,1.021 h -6.52 c -0.624,0 -1.134,-0.396 -1.134,-1.021 v -1.984 c 0,-0.396 -0.283,-0.736 -0.681,-0.736 -0.17,0 -0.284,0 -0.396,0 l -5.783,3.345 c -0.453,0.284 -0.963,0.396 -1.475,0.396 h -23.584 c -1.246,0 -2.438,-0.794 -2.777,-2.098 l -2.494,-9.297 c -0.114,-0.284 -0.114,-0.511 -0.114,-0.794 0,-0.964 0.454,-1.984 1.418,-2.495 l 27.496,-15.874 c 0.227,-0.113 0.34,-0.396 0.34,-0.623 0,-0.396 -0.284,-0.737 -0.681,-0.737 H 529 v -8.73 h 29.99 c 1.021,0 1.984,0.454 2.551,1.417 l 6.236,10.829 c 0.284,0.453 0.397,0.964 0.397,1.474 v 25.907 z"
   clip-path="url(#SVGID_4_)"
   transform="matrix(2.5989865,0,0,2.5989865,-1208.5157,-2642.0281)" /><path
   inkscape:connector-curvature="0"
   id="path39"
   d="m 466.016,1068.889 c -0.511,0 -1.021,-0.454 -1.021,-1.078 v -6.52 c 0,-0.624 0.454,-1.134 1.021,-1.134 h 28.006 c 0.397,0 0.737,-0.284 0.737,-0.68 0,-0.284 -0.113,-0.511 -0.34,-0.681 l -27.496,-15.874 c -0.907,-0.511 -1.418,-1.475 -1.418,-2.494 0,-0.228 0,-0.51 0,-0.737 l 2.494,-9.354 c 0.397,-1.304 1.531,-2.154 2.835,-2.154 h 34.81 v 8.674 h -28.97 c -0.454,0 -0.737,0.34 -0.737,0.737 0,0.227 0.057,0.51 0.283,0.624 l 27.496,15.874 c 0.964,0.566 1.474,1.529 1.474,2.494 0,0.283 0,0.511 -0.056,0.794 l -2.495,9.298 c -0.34,1.304 -1.53,2.153 -2.834,2.153"
   clip-path="url(#SVGID_4_)"
   transform="matrix(2.5989865,0,0,2.5989865,-1208.5157,-2642.0281)" /><path
   inkscape:connector-curvature="0"
   id="path41"
   d="m 703.672,1028.183 c 0.964,0 1.984,0.454 2.495,1.417 l 3.798,6.577 v -6.917 c 0,-0.567 0.51,-1.077 1.077,-1.077 h 16.215 c 1.02,0 1.983,0.454 2.494,1.417 l 3.854,6.577 c 0.227,0.453 0.34,0.964 0.34,1.474 v 30.104 c 0,0.623 -0.396,1.076 -1.02,1.076 h -6.521 c -0.623,0 -1.077,-0.396 -1.077,-1.021 v -29.82 c 0,-0.566 -0.51,-1.077 -1.134,-1.077 H 710.02 v 30.842 c 0,0.623 -0.454,1.076 -1.077,1.076 h -6.52 c -0.624,0 -1.135,-0.396 -1.135,-1.021 v -29.82 c 0,-0.566 -0.452,-1.077 -1.076,-1.077 h -13.097 c -0.566,0 -1.077,0.453 -1.077,1.021 v 29.821 c 0,0.623 -0.51,1.076 -1.076,1.076 h -6.577 c -0.567,0 -1.077,-0.396 -1.077,-1.021 v -38.551 c 0,-0.567 0.454,-1.077 1.021,-1.077 h 6.576 c 0.567,0 1.077,0.454 1.077,1.021 v 2.041 c 0,0.396 0.34,0.737 0.737,0.737 0.112,0 0.227,0 0.34,-0.057 l 5.783,-3.346 c 0.453,-0.283 0.964,-0.396 1.474,-0.396"
   clip-path="url(#SVGID_4_)"
   transform="matrix(2.5989865,0,0,2.5989865,-1208.5157,-2642.0281)" />
</svg>